<?xml version="1.0" standalone="no"?>
<!DOCTYPE svg PUBLIC "-//W3C//DTD SVG 1.1//EN"
"http://www.w3.org/Graphics/SVG/1.1/DTD/svg11.dtd">
<!-- Creator: fig2dev Version 3.2 Patchlevel 5d -->
<!-- CreationDate: Thu Oct 15 14:22:53 2015 -->
<!-- Magnification: 1.050 -->
<svg	xmlns="http://www.w3.org/2000/svg"
	xmlns:xlink="http://www.w3.org/1999/xlink"
	width="7.7in" height="5.8in"
	viewBox="979 1779 9250 6964">
<g style="stroke-width:.025in; fill:none">
<!-- Line: box -->
<rect x="9295" y="3401" width="731" height="1098" rx="0" 
style="stroke:#000000;stroke-width:8;
stroke-linejoin:miter; stroke-linecap:butt;
fill:#ffffff;
"/>
<!-- Line: box -->
<rect x="9222" y="3475" width="731" height="1098" rx="0" 
style="stroke:#000000;stroke-width:8;
stroke-linejoin:miter; stroke-linecap:butt;
fill:#ffffff;
"/>
<!-- Line: box -->
<rect x="9148" y="3548" width="732" height="1098" rx="0" 
style="stroke:#000000;stroke-width:8;
stroke-linejoin:miter; stroke-linecap:butt;
fill:#ffffff;
"/>
<!-- Line: box -->
<rect x="7893" y="5746" width="732" height="1099" rx="0" 
style="stroke:#000000;stroke-width:8;
stroke-linejoin:miter; stroke-linecap:butt;
fill:#ffffff;
"/>
<!-- Line: box -->
<rect x="9075" y="3620" width="732" height="1099" rx="0" 
style="stroke:#000000;stroke-width:8;
stroke-linejoin:miter; stroke-linecap:butt;
fill:#ffffff;
"/>
<!-- Line: box -->
<rect x="7821" y="5820" width="731" height="1098" rx="0" 
style="stroke:#000000;stroke-width:8;
stroke-linejoin:miter; stroke-linecap:butt;
fill:#ffffff;
"/>
<!-- Line: box -->
<rect x="9002" y="3694" width="731" height="1098" rx="0" 
style="stroke:#000000;stroke-width:8;
stroke-linejoin:miter; stroke-linecap:butt;
fill:#ffffff;
"/>
<!-- Ellipse -->
<ellipse transform="translate(5020,8542) rotate(-0.00000000)" rx="1011" ry="195"
 style="fill:#ffffff;stroke:#000000;stroke-width:8;"/>
<!-- Line: box -->
<rect x="7748" y="5893" width="731" height="1098" rx="0" 
style="stroke:#000000;stroke-width:8;
stroke-linejoin:miter; stroke-linecap:butt;
fill:#ffffff;
"/>
<!-- Line: box -->
<rect x="8929" y="3767" width="731" height="1098" rx="0" 
style="stroke:#000000;stroke-width:8;
stroke-linejoin:miter; stroke-linecap:butt;
fill:#ffffff;
"/>
<!-- Line -->
<polyline points="4009,8583
4009,7650
6029,7650
6029,8583
" style="stroke:#000000;stroke-width:8;
stroke-linejoin:miter; stroke-linecap:butt;
fill:#ffffff;
"/>
<!-- Ellipse -->
<ellipse transform="translate(5020,7611) rotate(-0.00000000)" rx="1011" ry="195"
 style="fill:#ffffff;stroke:#000000;stroke-width:8;"/>
<!-- Line: box -->
<rect x="992" y="6661" width="1133" height="1596" rx="0" 
style="stroke:#000000;stroke-width:8;
stroke-linejoin:miter; stroke-linecap:butt;
fill:#ffffff;
"/>
<!-- Line: box -->
<rect x="1559" y="2267" width="1133" height="1596" rx="0" 
style="stroke:#000000;stroke-width:8;
stroke-linejoin:miter; stroke-linecap:butt;
fill:#ffffff;
"/>
<!-- Line: box -->
<rect x="4251" y="1795" width="2764" height="1103" rx="0" 
style="stroke:#000000;stroke-width:8;
stroke-linejoin:miter; stroke-linecap:butt;
fill:#ffffff;
"/>
<!-- Line: box -->
<rect x="4936" y="3448" width="1653" height="660" rx="0" 
style="stroke:#000000;stroke-width:8;
stroke-linejoin:miter; stroke-linecap:butt;
fill:#ffffff;
"/>
<!-- Line: box -->
<rect x="5196" y="4677" width="1653" height="660" rx="0" 
style="stroke:#000000;stroke-width:8;
stroke-linejoin:miter; stroke-linecap:butt;
fill:#ffffff;
"/>
<!-- Line: box -->
<rect x="2976" y="5149" width="1653" height="660" rx="0" 
style="stroke:#000000;stroke-width:8;
stroke-linejoin:miter; stroke-linecap:butt;
fill:#ffffff;
"/>
<!-- Line: box -->
<rect x="4936" y="5952" width="1653" height="660" rx="0" 
style="stroke:#000000;stroke-width:8;
stroke-linejoin:miter; stroke-linecap:butt;
fill:#ffffff;
"/>
<!-- Line: box -->
<rect x="7889" y="2070" width="1322" height="527" rx="0" 
style="stroke:#000000;stroke-width:8;
stroke-linejoin:miter; stroke-linecap:butt;
fill:#ffffff;
"/>
<!-- Line -->
<polyline points="2787,2787
2789,2785
2794,2781
2804,2773
2818,2763
2837,2747
2861,2728
2890,2707
2921,2683
2955,2658
2988,2633
3023,2607
3057,2582
3089,2559
3121,2537
3150,2516
3180,2497
3207,2479
3233,2462
3259,2448
3285,2433
3310,2419
3336,2406
3362,2393
3384,2383
3407,2372
3432,2362
3456,2351
3482,2341
3509,2330
3539,2320
3569,2308
3602,2297
3636,2285
3673,2272
3712,2260
3753,2247
3796,2234
3840,2220
3884,2206
3927,2194
3970,2181
4010,2169
4046,2158
4077,2149
4103,2141
4124,2135
4020,2164
" style="stroke:#000000;stroke-width:8;
stroke-linejoin:bevel; stroke-linecap:butt;
"/>
<!-- Arrowhead on XXXpoint 4124 2135 - 4172 2120-->
<polygon points="3979 2221
4136 2132
3954 2146
4001 2174
3979 2221

" style="stroke:#000000;stroke-width:16;stroke-miterlimit:8;
fill:#000000;"/>
<!-- Line -->
<polyline points="2894,2978
2812,3048
2828,3035
2848,3017
2872,2997
2899,2974
2929,2949
2959,2922
2992,2896
3023,2870
3054,2845
3084,2820
3113,2797
3142,2775
3168,2755
3194,2737
3219,2719
3244,2702
3267,2686
3291,2671
3314,2657
3338,2643
3362,2629
3384,2617
3407,2605
3432,2593
3456,2581
3482,2569
3509,2557
3539,2544
3569,2532
3602,2518
3636,2504
3673,2490
3712,2475
3753,2459
3796,2444
3840,2428
3884,2411
3927,2395
3970,2381
4010,2366
4046,2353
4077,2342
4103,2333
4124,2326
4139,2321
4150,2318
4155,2316
4157,2314
" style="stroke:#000000;stroke-width:8;
stroke-linejoin:bevel; stroke-linecap:butt;
"/>
<!-- Arrowhead on XXXpoint 2812 3048 - 2774 3080-->
<polygon points="2914 2912
2804 3056
2964 2972
2912 2964
2914 2912

" style="stroke:#000000;stroke-width:16;stroke-miterlimit:8;
fill:#000000;"/>
<!-- Line -->
<polyline points="5833,7195
5751,7251
5770,7237
5792,7222
5814,7205
5837,7187
5859,7170
5880,7154
5899,7139
5916,7124
5931,7110
5946,7097
5959,7083
5971,7069
5984,7055
5995,7040
6008,7024
6019,7007
6031,6990
6045,6970
6057,6948
6072,6923
6088,6896
6103,6868
6120,6837
6136,6808
6152,6779
6164,6754
6175,6734
6182,6720
6186,6712
6188,6708
" style="stroke:#000000;stroke-width:8;
stroke-linejoin:bevel; stroke-linecap:butt;
"/>
<!-- Arrowhead on XXXpoint 5751 7251 - 5702 7283-->
<polygon points="5858 7130
5734 7262
5902 7195
5850 7183
5858 7130

" style="stroke:#000000;stroke-width:16;stroke-miterlimit:8;
fill:#000000;"/>
<!-- Line -->
<polyline points="6330,5858
6330,5857
6331,5851
6334,5840
6339,5821
6344,5798
6349,5774
6354,5751
6359,5730
6363,5711
6365,5693
6368,5677
6370,5661
6371,5647
6372,5632
6373,5616
6374,5600
6375,5580
6375,5558
6376,5534
6376,5509
6376,5485
6377,5464
6377,5447
6377,5438
6377,5434
6377,5433
" style="stroke:#000000;stroke-width:8;
stroke-linejoin:bevel; stroke-linecap:butt;
"/>
<!-- Line -->
<polyline points="6094,5858
6094,5857
6095,5851
6098,5840
6102,5821
6108,5798
6113,5774
6118,5751
6122,5730
6127,5711
6129,5693
6132,5677
6134,5661
6135,5647
6136,5632
6137,5616
6138,5600
6139,5580
6139,5558
6140,5534
6140,5509
6140,5485
6141,5464
6141,5447
6141,5438
6141,5434
6141,5433
" style="stroke:#000000;stroke-width:8;
stroke-linejoin:bevel; stroke-linecap:butt;
"/>
<!-- Line -->
<polyline points="5433,7275
5436,7273
5442,7269
5453,7261
5467,7251
5486,7237
5508,7222
5530,7205
5553,7187
5575,7170
5596,7154
5615,7139
5632,7124
5648,7110
5662,7097
5675,7083
5688,7069
5700,7055
5712,7040
5724,7024
5736,7007
5748,6990
5761,6970
5774,6948
5788,6923
5804,6896
5820,6868
5837,6837
5853,6808
5868,6779
5881,6754
5891,6734
5899,6720
5903,6712
5905,6708
" style="stroke:#000000;stroke-width:8;
stroke-linejoin:bevel; stroke-linecap:butt;
"/>
<!-- Line -->
<polyline points="5858,3401
5858,3400
5856,3396
5851,3386
5844,3370
5836,3349
5825,3324
5814,3299
5803,3276
5793,3254
5783,3234
5774,3217
5765,3202
5757,3187
5748,3173
5738,3159
5728,3145
5716,3130
5703,3114
5689,3098
5672,3080
5654,3060
5634,3039
5615,3019
5598,3001
5671,3077
" style="stroke:#000000;stroke-width:8;
stroke-linejoin:bevel; stroke-linecap:butt;
"/>
<!-- Arrowhead on XXXpoint 5598 3001 - 5563 2964-->
<polygon points="5740 3090
5589 2992
5683 3146
5688 3092
5740 3090

" style="stroke:#000000;stroke-width:16;stroke-miterlimit:8;
fill:#000000;"/>
<!-- Line -->
<polyline points="6094,3401
6094,3400
6092,3396
6088,3386
6080,3370
6072,3349
6061,3324
6050,3299
6039,3276
6029,3254
6019,3234
6010,3217
6002,3202
5993,3187
5984,3173
5974,3159
5964,3145
5952,3130
5940,3114
5925,3098
5908,3080
5890,3060
5870,3039
5851,3019
5835,3001
5822,2988
5815,2980
5812,2977
5811,2976
" style="stroke:#000000;stroke-width:8;
stroke-linejoin:bevel; stroke-linecap:butt;
"/>
<!-- Line -->
<polyline points="6377,4582
6377,4581
6377,4578
6377,4569
6377,4554
6376,4536
6376,4518
6375,4499
6374,4482
6373,4468
6372,4453
6371,4439
6370,4425
6368,4412
6366,4398
6364,4384
6361,4367
6358,4349
6353,4328
6349,4304
6345,4280
6341,4256
6337,4235
6333,4219
6331,4209
6330,4205
6330,4204
" style="stroke:#000000;stroke-width:8;
stroke-linejoin:bevel; stroke-linecap:butt;
"/>
<!-- Line -->
<polyline points="6141,4582
6141,4581
6141,4578
6141,4569
6141,4554
6140,4536
6140,4518
6139,4499
6138,4482
6137,4468
6136,4453
6135,4439
6134,4425
6132,4412
6130,4398
6128,4384
6124,4367
6121,4349
6117,4328
6113,4304
6109,4280
6104,4256
6100,4235
6097,4219
6095,4209
6094,4205
6094,4204
" style="stroke:#000000;stroke-width:8;
stroke-linejoin:bevel; stroke-linecap:butt;
"/>
<!-- Line -->
<polyline points="4015,5905
4015,5907
4016,5913
4018,5923
4020,5940
4025,5961
4029,5989
4034,6022
4040,6059
4048,6101
4055,6146
4062,6192
4070,6238
4078,6284
4086,6328
4093,6371
4100,6412
4107,6450
4113,6487
4119,6520
4125,6552
4131,6582
4137,6609
4142,6637
4148,6662
4153,6686
4158,6709
4163,6732
4170,6760
4177,6788
4183,6814
4191,6841
4199,6870
4207,6898
4216,6927
4225,6958
4236,6990
4246,7023
4258,7057
4270,7091
4282,7126
4293,7160
4304,7190
4313,7217
4322,7238
4288,7141
" style="stroke:#000000;stroke-width:8;
stroke-linejoin:bevel; stroke-linecap:butt;
"/>
<!-- Arrowhead on XXXpoint 4322 7238 - 4339 7290-->
<polygon points="4234 7098
4327 7254
4309 7072
4283 7119
4234 7098

" style="stroke:#000000;stroke-width:16;stroke-miterlimit:8;
fill:#000000;"/>
<!-- Line -->
<polyline points="4274,6045
4257,5939
4260,5960
4263,5986
4268,6017
4274,6053
4279,6091
4285,6132
4291,6172
4298,6213
4305,6253
4311,6290
4317,6326
4323,6361
4329,6393
4335,6424
4341,6453
4347,6480
4352,6507
4359,6533
4365,6557
4371,6581
4377,6606
4384,6629
4391,6655
4398,6679
4407,6704
4415,6729
4425,6756
4434,6784
4445,6813
4456,6845
4469,6877
4482,6912
4496,6948
4512,6985
4527,7024
4542,7062
4557,7100
4572,7137
4585,7169
4598,7198
4608,7224
4617,7244
4622,7258
4626,7268
4628,7273
4629,7275
" style="stroke:#000000;stroke-width:8;
stroke-linejoin:bevel; stroke-linecap:butt;
"/>
<!-- Arrowhead on XXXpoint 4257 5939 - 4248 5889-->
<polygon points="4323 6094
4255 5926
4245 6107
4278 6066
4323 6094

" style="stroke:#000000;stroke-width:16;stroke-miterlimit:8;
fill:#000000;"/>
<!-- Line -->
<polyline points="2919,3736
2825,3699
2848,3709
2876,3720
2910,3735
2945,3750
2984,3766
3023,3783
3062,3801
3099,3819
3134,3836
3167,3853
3197,3869
3226,3885
3251,3901
3275,3917
3296,3932
3317,3948
3335,3965
3353,3982
3370,4000
3385,4018
3401,4037
3416,4057
3429,4078
3444,4100
3457,4123
3470,4148
3483,4173
3496,4198
3507,4224
3518,4251
3528,4279
3539,4305
3548,4332
3558,4360
3566,4386
3573,4412
3581,4437
3587,4462
3593,4486
3598,4510
3604,4532
3609,4553
3614,4575
3619,4599
3624,4623
3629,4646
3633,4670
3637,4695
3641,4720
3647,4746
3651,4774
3655,4803
3660,4833
3665,4864
3669,4894
3673,4922
3676,4949
3679,4970
3681,4986
3683,4998
3685,5004
3685,5007
" style="stroke:#000000;stroke-width:8;
stroke-linejoin:bevel; stroke-linecap:butt;
"/>
<!-- Arrowhead on XXXpoint 2825 3699 - 2772 3678-->
<polygon points="2985 3720
2807 3692
2956 3794
2938 3744
2985 3720

" style="stroke:#000000;stroke-width:16;stroke-miterlimit:8;
fill:#000000;"/>
<!-- Line -->
<polyline points="2787,3401
2789,3402
2794,3404
2804,3408
2819,3415
2839,3423
2866,3435
2896,3447
2932,3463
2972,3480
3013,3499
3056,3518
3099,3538
3142,3558
3183,3577
3222,3596
3259,3615
3295,3633
3328,3651
3358,3669
3387,3686
3414,3701
3439,3718
3462,3735
3484,3752
3504,3767
3524,3785
3543,3803
3563,3822
3582,3842
3600,3863
3618,3885
3635,3907
3653,3930
3670,3955
3686,3980
3702,4006
3717,4032
3732,4059
3746,4087
3760,4114
3774,4142
3786,4170
3798,4198
3809,4225
3820,4251
3829,4279
3839,4305
3847,4330
3855,4354
3862,4379
3869,4403
3876,4426
3882,4449
3888,4475
3895,4501
3900,4527
3906,4554
3911,4581
3917,4609
3921,4639
3926,4670
3931,4703
3935,4738
3941,4774
3945,4811
3950,4848
3954,4883
3958,4916
3961,4944
3964,4969
3952,4867
" style="stroke:#000000;stroke-width:8;
stroke-linejoin:bevel; stroke-linecap:butt;
"/>
<!-- Arrowhead on XXXpoint 3964 4969 - 3969 5022-->
<polygon points="3908 4811
3965 4984
3986 4804
3950 4843
3908 4811

" style="stroke:#000000;stroke-width:16;stroke-miterlimit:8;
fill:#000000;"/>
<!-- Line -->
<polyline points="3779,5905
3778,5908
3776,5913
3773,5924
3767,5941
3760,5963
3751,5991
3739,6024
3727,6061
3713,6101
3699,6143
3685,6186
3669,6229
3655,6270
3640,6310
3627,6348
3613,6384
3601,6416
3588,6448
3575,6478
3564,6506
3551,6532
3540,6558
3528,6582
3516,6606
3504,6629
3490,6653
3478,6676
3464,6699
3450,6722
3436,6745
3420,6769
3404,6792
3387,6815
3370,6839
3352,6862
3333,6886
3313,6909
3294,6932
3273,6954
3253,6975
3232,6996
3210,7017
3189,7037
3168,7055
3146,7074
3125,7090
3103,7107
3081,7122
3060,7138
3038,7151
3016,7165
2993,7177
2970,7190
2945,7203
2920,7214
2893,7227
2865,7238
2835,7250
2803,7261
2768,7273
2731,7286
2692,7298
2650,7311
2607,7323
2563,7337
2518,7350
2474,7361
2432,7373
2392,7384
2358,7393
2328,7401
2305,7407
2404,7382
" style="stroke:#000000;stroke-width:8;
stroke-linejoin:bevel; stroke-linecap:butt;
"/>
<!-- Arrowhead on XXXpoint 2305 7407 - 2251 7420-->
<polygon points="2451 7332
2288 7412
2469 7408
2426 7379
2451 7332

" style="stroke:#000000;stroke-width:16;stroke-miterlimit:8;
fill:#000000;"/>
<!-- Line -->
<polyline points="3493,6037
3529,5941
3520,5963
3509,5990
3497,6022
3483,6056
3467,6093
3453,6130
3437,6167
3422,6203
3407,6238
3394,6270
3381,6301
3369,6329
3356,6355
3344,6381
3334,6404
3323,6426
3312,6447
3301,6468
3291,6488
3279,6509
3267,6531
3254,6552
3240,6573
3227,6595
3212,6616
3197,6638
3182,6659
3165,6680
3148,6701
3130,6722
3112,6742
3093,6762
3075,6781
3055,6800
3036,6816
3016,6833
2996,6849
2976,6865
2955,6878
2934,6892
2913,6906
2893,6917
2872,6928
2850,6939
2827,6950
2802,6960
2774,6972
2746,6983
2714,6995
2681,7006
2644,7019
2606,7032
2565,7044
2523,7058
2480,7070
2439,7083
2400,7095
2364,7105
2333,7114
2308,7122
2289,7127
2277,7130
2270,7132
2267,7133
" style="stroke:#000000;stroke-width:8;
stroke-linejoin:bevel; stroke-linecap:butt;
"/>
<!-- Arrowhead on XXXpoint 3529 5941 - 3548 5889-->
<polygon points="3511 6104
3535 5925
3437 6077
3486 6057
3511 6104

" style="stroke:#000000;stroke-width:16;stroke-miterlimit:8;
fill:#000000;"/>
<!-- Line -->
<polyline points="9023,3448
9022,3447
9021,3444
9019,3438
9015,3429
9011,3418
9004,3404
8996,3387
8987,3370
8977,3350
8966,3328
8954,3306
8940,3281
8925,3257
8909,3231
8890,3203
8869,3172
8844,3140
8816,3106
8787,3070
8755,3036
8725,3002
8695,2972
8666,2944
8639,2919
8613,2896
8587,2874
8563,2854
8539,2835
8517,2818
8495,2802
8475,2787
8457,2774
8441,2763
8430,2754
8420,2747
8414,2743
8411,2741
8409,2740
" style="stroke:#000000;stroke-width:8;
stroke-linejoin:bevel; stroke-linecap:butt;
"/>
<!-- Line -->
<polyline points="7700,2267
7698,2266
7694,2265
7686,2262
7675,2258
7660,2253
7644,2246
7625,2239
7605,2232
7583,2224
7560,2217
7535,2208
7509,2200
7480,2191
7449,2182
7417,2173
7381,2163
7349,2155
7320,2149
7295,2143
7273,2139
7253,2136
7235,2133
7219,2131
7206,2129
7320,2142
" style="stroke:#000000;stroke-width:8;
stroke-linejoin:bevel; stroke-linecap:butt;
"/>
<!-- Arrowhead on XXXpoint 7206 2129 - 7165 2123-->
<polygon points="7383 2112
7203 2129
7373 2190
7342 2146
7383 2112

" style="stroke:#000000;stroke-width:16;stroke-miterlimit:8;
fill:#000000;"/>
<!-- Line -->
<polyline points="7984,5622
7983,5620
7982,5617
7979,5612
7973,5605
7967,5594
7959,5582
7948,5565
7937,5547
7923,5526
7907,5505
7890,5481
7874,5457
7854,5433
7834,5406
7812,5381
7788,5354
7763,5327
7736,5298
7707,5270
7673,5240
7637,5210
7600,5180
7559,5149
7517,5121
7476,5095
7436,5070
7398,5049
7362,5032
7328,5015
7294,5001
7262,4988
7232,4977
7203,4966
7174,4958
7147,4950
7121,4942
7096,4936
7074,4931
7054,4925
7036,4922
7021,4919
7009,4916
7130,4936
" style="stroke:#000000;stroke-width:8;
stroke-linejoin:bevel; stroke-linecap:butt;
"/>
<!-- Arrowhead on XXXpoint 7009 4916 - 6976 4910-->
<polygon points="7193 4911
7013 4917
7179 4987
7151 4942
7193 4911

" style="stroke:#000000;stroke-width:16;stroke-miterlimit:8;
fill:#000000;"/>
<!-- Text -->
<text xml:space="preserve" x="5051" y="8217" fill="#000000"  font-family="Times" font-style="normal" font-weight="normal" font-size="177" text-anchor="middle">XML Database</text>
<!-- Text -->
<text xml:space="preserve" x="2125" y="1937" fill="#000000"  font-family="Times" font-style="normal" font-weight="normal" font-size="152" text-anchor="middle">Editorial</text>
<!-- Text -->
<text xml:space="preserve" x="2125" y="2173" fill="#000000"  font-family="Times" font-style="normal" font-weight="normal" font-size="152" text-anchor="middle">Staff</text>
<!-- Text -->
<text xml:space="preserve" x="3779" y="5574" fill="#000000"  font-family="Times" font-style="normal" font-weight="normal" font-size="177" text-anchor="middle">XQuery</text>
<!-- Text -->
<text xml:space="preserve" x="5593" y="2362" fill="#000000"  font-family="Times" font-style="normal" font-weight="normal" font-size="177" text-anchor="middle">XForms processor</text>
<!-- Text -->
<text xml:space="preserve" x="2125" y="2834" fill="#000000"  font-family="Times" font-style="normal" font-weight="normal" font-size="152" text-anchor="middle">Browser</text>
<!-- Text -->
<text xml:space="preserve" x="1559" y="7228" fill="#000000"  font-family="Times" font-style="normal" font-weight="normal" font-size="152" text-anchor="middle">Browser</text>
<!-- Text -->
<text xml:space="preserve" x="1559" y="6330" fill="#000000"  font-family="Times" font-style="normal" font-weight="normal" font-size="152" text-anchor="middle">End</text>
<!-- Text -->
<text xml:space="preserve" x="1559" y="6566" fill="#000000"  font-family="Times" font-style="normal" font-weight="normal" font-size="152" text-anchor="middle">User</text>
<!-- Text -->
<text xml:space="preserve" x="6000" y="5102" fill="#000000"  font-family="Times" font-style="normal" font-weight="normal" font-size="152" text-anchor="middle">Filter &#38; Gateway</text>
<!-- Text -->
<text xml:space="preserve" x="8267" y="7322" fill="#000000"  font-family="Times" font-style="normal" font-weight="normal" font-size="152" text-anchor="middle">Filters in XSLT</text>
<!-- Text -->
<text xml:space="preserve" x="9496" y="5196" fill="#000000"  font-family="Times" font-style="normal" font-weight="normal" font-size="177" text-anchor="middle">XForms stack</text>
<!-- Text -->
<text xml:space="preserve" x="8532" y="2409" fill="#000000"  font-family="Times" font-style="normal" font-weight="normal" font-size="139" text-anchor="middle">XInclude</text>
<!-- Text -->
<text xml:space="preserve" x="5763" y="3732" fill="#000000"  font-family="Times" font-style="normal" font-weight="normal" font-size="177" text-anchor="middle">GET, PUT</text>
<!-- Text -->
<text xml:space="preserve" x="5763" y="4031" fill="#000000"  font-family="Times" font-style="normal" font-weight="normal" font-size="177" text-anchor="middle">&#38; DELETE</text>
<!-- Text -->
<text xml:space="preserve" x="5763" y="6236" fill="#000000"  font-family="Times" font-style="normal" font-weight="normal" font-size="177" text-anchor="middle">GET, PUT</text>
<!-- Text -->
<text xml:space="preserve" x="5763" y="6535" fill="#000000"  font-family="Times" font-style="normal" font-weight="normal" font-size="177" text-anchor="middle">&#38; DELETE</text>
</g>
</svg>
